<svg xmlns="http://www.w3.org/2000/svg" width="180" height="32" viewBox="0 0 180 32" fill="none">
  <!-- 胶囊背景 - 增加宽度到 72px 以提供足够空间 -->
  <rect x="0" y="3" width="72" height="26" rx="13" fill="#000000"/>
  
  <!-- KIMI 文字 - 修正 translate 偏移量以实现居中 -->
  <g transform="translate(-2, 0)">
    <path fill="#ffffff" d="M31.65 22.706c0 .163.132.294.294.294h1.888a.294.294 0 0 0 .294-.294V9.294A.294.294 0 0 0 33.832 9h-1.888a.294.294 0 0 0-.294.294zM55.525 22.706c0 .163.131.294.293.294h1.888a.294.294 0 0 0 .294-.294V9.294A.294.294 0 0 0 57.706 9h-1.888a.294.294 0 0 0-.293.294zM48.058 9a.294.294 0 0 0-.285.224l-2.79 11.419c-.047.187-.267.187-.312 0L41.88 9.223A.29.29 0 0 0 41.596 9h-4.73a.29.29 0 0 0-.291.294v13.412c0 .163.13.294.293.294h2.097a.29.29 0 0 0 .293-.29V11.43c0-.226.265-.272.319-.056l2.787 11.402c.032.131.15.224.285.224h4.355a.294.294 0 0 0 .285-.224l2.786-11.4c.053-.217.318-.17.318.055v11.275c0 .163.132.294.294.294h2.096a.294.294 0 0 0 .294-.294V9.294A.294.294 0 0 0 52.783 9zM22.697 15.491l5.692-5.995A.294.294 0 0 0 28.176 9h-2.65a.3.3 0 0 0-.208.087l-6.524 6.573c-.101.102-.251.011-.251-.153V9.294A.294.294 0 0 0 18.249 9h-1.955a.294.294 0 0 0-.294.294v13.412c0 .163.132.294.294.294h1.955a.294.294 0 0 0 .294-.294v-2.674a.22.22 0 0 1 .057-.153l2.013-2.052c.049-.05.116-.057.17-.02l5.385 4.07c.788.546 1.79.902 2.709 1.052a.282.282 0 0 0 .325-.284v-2.423a.306.306 0 0 0-.246-.296c-.532-.114-1.125-.331-1.574-.642l-4.662-3.467c-.096-.067-.109-.238-.023-.326"/>
  </g>

  <!-- Platform 文字 - 与胶囊保持合适的间距 -->
  <text x="84" y="22.5" fill="#374151" font-family="Inter, system-ui, -apple-system, sans-serif" font-size="18" font-weight="400">Platform</text>
</svg>
